<svg width="55" height="55" viewBox="0 0 55 55" fill="none" xmlns="http://www.w3.org/2000/svg">
<path d="M27.5 0C23.8886 0 20.3127 0.717211 16.9762 2.11068C13.6398 3.50415 10.6082 5.5466 8.05456 8.1214C2.89731 13.3214 0 20.3742 0 27.7282C0 39.984 7.8925 50.3821 18.81 54.07C20.185 54.2918 20.625 53.4322 20.625 52.6835V47.9975C13.0075 49.6612 11.385 44.2819 11.385 44.2819C10.12 41.0654 8.3325 40.2059 8.3325 40.2059C5.83 38.4867 8.525 38.5422 8.525 38.5422C11.275 38.7363 12.7325 41.3982 12.7325 41.3982C15.125 45.6129 19.1675 44.3651 20.735 43.6996C20.9825 41.8973 21.6975 40.6772 22.4675 39.984C16.3625 39.2908 9.955 36.9062 9.955 26.3418C9.955 23.2639 11 20.7961 12.7875 18.8274C12.5125 18.1342 11.55 15.2505 13.0625 11.5072C13.0625 11.5072 15.3725 10.7585 20.625 14.3355C22.7975 13.7254 25.1625 13.4204 27.5 13.4204C29.8375 13.4204 32.2025 13.7254 34.375 14.3355C39.6275 10.7585 41.9375 11.5072 41.9375 11.5072C43.45 15.2505 42.4875 18.1342 42.2125 18.8274C44 20.7961 45.045 23.2639 45.045 26.3418C45.045 36.9339 38.61 39.2631 32.4775 39.9563C33.4675 40.8159 34.375 42.5073 34.375 45.086V52.6835C34.375 53.4322 34.815 54.3195 36.2175 54.07C47.135 50.3544 55 39.984 55 27.7282C55 24.0869 54.2887 20.4812 52.9067 17.1171C51.5247 13.7529 49.499 10.6962 46.9454 8.1214C44.3918 5.5466 41.3602 3.50415 38.0238 2.11068C34.6873 0.717211 31.1114 0 27.5 0Z" fill="white"/>
</svg>
