<svg xmlns="http://www.w3.org/2000/svg" width="70" height="70" viewBox="0 0 70 70" fill="none">
<path d="M65.3023 5.23086C65.2774 5.10995 65.2185 4.99865 65.1325 4.91002C65.0465 4.8214 64.9371 4.75911 64.817 4.73047C56.8094 2.77266 38.3072 9.74942 28.283 19.7695C26.4951 21.543 24.8652 23.4689 23.4117 25.5254C20.3205 25.252 17.2293 25.4803 14.5947 26.6287C7.16133 29.9004 4.99707 38.4371 4.39414 42.1094C4.35994 42.3104 4.37284 42.5166 4.43182 42.7117C4.49081 42.9069 4.59427 43.0857 4.73407 43.2341C4.87387 43.3826 5.04619 43.4965 5.23749 43.567C5.42879 43.6376 5.63384 43.6628 5.83652 43.6406L17.7734 42.324C17.782 43.224 17.8363 44.1229 17.9361 45.0174C17.9962 45.6385 18.2719 46.219 18.7154 46.658L23.3379 51.2695C23.7773 51.7125 24.3576 51.9881 24.9785 52.0488C25.868 52.1483 26.7619 52.2026 27.6568 52.2115L26.3471 64.1334C26.3252 64.336 26.3506 64.5409 26.4212 64.7321C26.4919 64.9233 26.6058 65.0955 26.7542 65.2352C26.9025 65.3749 27.0812 65.4784 27.2763 65.5375C27.4713 65.5966 27.6774 65.6097 27.8783 65.5758C31.5437 64.9879 40.0955 62.8236 43.348 55.3902C44.4965 52.7557 44.7316 49.6795 44.4664 46.6033C46.5279 45.1498 48.4588 43.5194 50.2373 41.7307C60.293 31.7256 67.2301 13.6363 65.3023 5.23086ZM40.2049 29.7951C39.2867 28.8775 38.6612 27.7082 38.4077 26.4351C38.1541 25.162 38.2838 23.8422 38.7804 22.6428C39.277 21.4435 40.1181 20.4183 41.1974 19.697C42.2767 18.9757 43.5456 18.5907 44.8438 18.5907C46.1419 18.5907 47.4108 18.9757 48.4901 19.697C49.5694 20.4183 50.4105 21.4435 50.9071 22.6428C51.4037 23.8422 51.5334 25.162 51.2798 26.4351C51.0263 27.7082 50.4008 28.8775 49.4826 29.7951C48.8737 30.4049 48.1506 30.8886 47.3547 31.2186C46.5587 31.5487 45.7054 31.7185 44.8438 31.7185C43.9821 31.7185 43.1288 31.5487 42.3328 31.2186C41.5369 30.8886 40.8138 30.4049 40.2049 29.7951Z" fill="white"/>
<path d="M23.0234 54.6096C22.2742 55.3602 21.0725 55.6527 19.626 55.9029C16.3762 56.4566 13.5064 53.6484 14.0902 50.3631C14.3131 49.1176 14.9721 47.3717 15.3822 46.9615C15.4719 46.8736 15.5315 46.7597 15.5528 46.6359C15.574 46.5122 15.5557 46.3849 15.5004 46.2721C15.4452 46.1593 15.3558 46.0668 15.245 46.0078C15.1342 45.9487 15.0076 45.926 14.8832 45.943C13.0659 46.1653 11.3752 46.9893 10.0803 48.2836C6.86602 51.5006 6.5625 63.4375 6.5625 63.4375C6.5625 63.4375 18.5062 63.134 21.7205 59.917C23.0189 58.6231 23.8438 56.9299 24.0625 55.11C24.1131 54.5385 23.4172 54.1981 23.0234 54.6096Z" fill="white"/>
</svg>