<svg width="38" height="38" viewBox="0 0 38 38" fill="none" xmlns="http://www.w3.org/2000/svg">
<g clip-path="url(#clip0_8_92)">
<path d="M34.4375 0.89064H3.5625C2.86197 0.883511 2.18722 1.15458 1.68631 1.64436C1.18539 2.13414 0.899238 2.80262 0.890625 3.50314V34.5028C0.900795 35.2023 1.18764 35.8693 1.68838 36.3578C2.18912 36.8463 2.86298 37.1165 3.5625 37.1094H34.4375C35.1381 37.1149 35.8124 36.843 36.313 36.3529C36.8137 35.8628 37.1 35.1945 37.1094 34.4939V3.49423C37.0969 2.79577 36.8092 2.13047 36.3089 1.64294C35.8086 1.15541 35.1361 0.885052 34.4375 0.89064Z" fill="#0076B2"/>
<path d="M6.25218 14.4667H11.6286V31.7656H6.25218V14.4667ZM8.94187 5.85733C9.55851 5.85733 10.1613 6.04023 10.674 6.38288C11.1867 6.72553 11.5862 7.21254 11.8221 7.78231C12.0579 8.35207 12.1195 8.97899 11.9989 9.58374C11.8784 10.1885 11.5812 10.7439 11.145 11.1798C10.7088 11.6156 10.153 11.9122 9.54818 12.0322C8.94331 12.1521 8.31645 12.09 7.74691 11.8536C7.17737 11.6172 6.69074 11.2172 6.34857 10.7042C6.00641 10.1912 5.82409 9.5882 5.82468 8.97155C5.82546 8.14533 6.15423 7.35323 6.73873 6.76928C7.32323 6.18534 8.11565 5.85733 8.94187 5.85733ZM15.0011 14.4667H20.1548V16.8417H20.2261C20.9445 15.482 22.6961 14.0481 25.3116 14.0481C30.7562 14.0362 31.7656 17.6195 31.7656 22.2656V31.7656H26.3892V23.3492C26.3892 21.3453 26.3536 18.7655 23.5956 18.7655C20.8376 18.7655 20.3686 20.9505 20.3686 23.2186V31.7656H15.0011V14.4667Z" fill="white"/>
</g>
<defs>
<clipPath id="clip0_8_92">
<rect width="38" height="38" fill="white"/>
</clipPath>
</defs>
</svg>
