<svg width="55" height="46" viewBox="0 0 55 46" fill="none" xmlns="http://www.w3.org/2000/svg">
<path d="M33.6424 0.0751744C34.1838 0.219798 34.6455 0.573451 34.9261 1.05836C35.2067 1.54327 35.2831 2.11972 35.1386 2.66096L23.9442 44.4335C23.7988 44.9751 23.4442 45.4368 22.9583 45.717C22.4725 45.9973 21.8951 46.0731 21.3534 45.9278C20.8116 45.7825 20.3497 45.428 20.0694 44.9423C19.7891 44.4565 19.7133 43.8794 19.8586 43.3378L31.0558 1.56524C31.1278 1.29721 31.2518 1.04598 31.4209 0.82589C31.5899 0.605799 31.8007 0.421161 32.0412 0.282526C32.2816 0.143891 32.5471 0.0539752 32.8223 0.0179138C33.0975 -0.0181476 33.3772 0.000352799 33.6452 0.0723578M40.0187 8.67192C40.3935 8.25553 40.9184 8.00499 41.478 7.97541C42.0375 7.94583 42.5859 8.13963 43.0026 8.51418L47.8968 12.9196C49.9734 14.7843 51.6921 16.3335 52.8755 17.7362C54.1153 19.215 55 20.8009 55 22.7613C55 24.719 54.1181 26.3048 52.8755 27.7808C51.6921 29.1864 49.9734 30.7356 47.8968 32.6003L43.0026 37.0057C42.586 37.3807 42.0374 37.5749 41.4775 37.5456C40.9177 37.5163 40.3924 37.2658 40.0173 36.8494C39.6422 36.4329 39.4479 35.8845 39.4772 35.3248C39.5065 34.7651 39.7571 34.24 40.1737 33.865L44.9552 29.5638C47.1755 27.5667 48.6716 26.2119 49.6409 25.0626C50.5707 23.9557 50.7736 23.3106 50.7736 22.7585C50.7736 22.2093 50.5707 21.5642 49.6409 20.4572C48.6716 19.3052 47.1755 17.9503 44.9552 15.9561L40.1737 11.6549C39.967 11.4693 39.799 11.2448 39.6792 10.9943C39.5594 10.7437 39.4902 10.472 39.4755 10.1947C39.4609 9.91738 39.5011 9.6399 39.5938 9.37812C39.6865 9.11634 39.8299 8.87541 40.0159 8.66911M14.8263 11.6549C15.2429 11.2798 15.4935 10.7547 15.5228 10.1951C15.5521 9.63539 15.3578 9.08699 14.9827 8.67051C14.6076 8.25403 14.0823 8.00359 13.5225 7.97427C12.9626 7.94495 12.414 8.13916 11.9974 8.51418L7.10323 12.9196C5.02664 14.7843 3.30789 16.3335 2.12449 17.7362C0.884733 19.215 0 20.8009 0 22.7613C0 24.719 0.881916 26.3048 2.12449 27.7808C3.30789 29.1864 5.02664 30.7356 7.10323 32.6003L11.9974 37.0057C12.414 37.3807 12.9626 37.5749 13.5225 37.5456C14.0823 37.5163 14.6076 37.2658 14.9827 36.8494C15.3578 36.4329 15.5521 35.8845 15.5228 35.3248C15.4935 34.7651 15.2429 34.24 14.8263 33.865L10.0448 29.5638C7.82454 27.5667 6.32838 26.2119 5.35912 25.0626C4.4293 23.9557 4.22643 23.3106 4.22643 22.7585C4.22643 22.2093 4.4293 21.5642 5.35912 20.4572C6.32838 19.3052 7.82454 17.9503 10.0448 15.9561L14.8263 11.6549Z" fill="#BEBEBE"/>
</svg>
