<svg width="62" height="62" viewBox="0 0 62 62" fill="none" xmlns="http://www.w3.org/2000/svg">
<path d="M36.363 22.3006L26.2492 5.67688C25.5905 4.55313 24.4086 3.875 23.1105 3.875H10.3424C7.53299 3.875 5.76986 6.8975 7.14549 9.33875C9.70229 13.8623 13.3109 17.7035 17.6661 20.5375C19.1386 21.6806 20.9599 22.3006 22.8392 22.3006H36.363Z" fill="#0074BA"/>
<path d="M51.6498 3.875H38.8817C37.5836 3.875 36.4017 4.55313 35.743 5.67688L25.6292 22.3006H39.1723C41.0517 22.3006 42.8536 21.6806 44.3455 20.5375C48.7048 17.7087 52.3086 13.8725 54.8661 9.33875C56.2223 6.8975 54.4592 3.875 51.6498 3.875Z" fill="#00A6ED"/>
<path d="M30.9806 58.125C41.724 58.125 50.4331 49.1989 50.4331 38.1881C50.4331 27.1773 41.724 18.2512 30.9806 18.2512C20.2372 18.2512 11.5281 27.1773 11.5281 38.1881C11.5281 49.1989 20.2372 58.125 30.9806 58.125Z" fill="#FFB02E"/>
<path d="M27.2722 31.0795C27.2722 30.5656 27.4763 30.0728 27.8397 29.7094C28.203 29.3461 28.6959 29.142 29.2097 29.142H31C31.5138 29.142 32.0066 29.3461 32.37 29.7094C32.7333 30.0728 32.9375 30.5656 32.9375 31.0795V44.5625C32.9375 45.0764 32.7333 45.5692 32.37 45.9325C32.0066 46.2959 31.5138 46.5 31 46.5C30.4861 46.5 29.9933 46.2959 29.6299 45.9325C29.2666 45.5692 29.0625 45.0764 29.0625 44.5625V33.0112C28.5755 32.974 28.1206 32.7544 27.7887 32.3963C27.4567 32.0381 27.2723 31.5678 27.2722 31.0795Z" fill="#6D4534"/>
<path d="M31 55.7225C26.4275 55.7225 22.1262 53.9013 18.91 50.5881C15.673 47.2747 13.8703 42.8203 13.8919 38.1881C13.8919 33.4994 15.6744 29.1013 18.91 25.7881C20.4799 24.1657 22.3601 22.8755 24.4388 21.9945C26.5174 21.1134 28.752 20.6593 31.0097 20.6593C33.2673 20.6593 35.5019 21.1134 37.5806 21.9945C39.6592 22.8755 41.5394 24.1657 43.1094 25.7881C49.7744 32.6275 49.7744 43.7488 43.1094 50.5881C39.8544 53.9013 35.5531 55.7225 31 55.7225ZM30.9806 23.0369C27.2025 23.0369 23.405 24.5094 20.5375 27.4738C17.7482 30.3406 16.1966 34.1883 16.2169 38.1881C16.2169 42.2375 17.7475 46.035 20.5375 48.9025C21.89 50.3069 23.512 51.4237 25.3065 52.1861C27.101 52.9485 29.0309 53.3408 30.9806 53.3394C34.9331 53.3394 38.6337 51.77 41.4237 48.9025C47.1781 42.9931 47.1781 33.3831 41.4237 27.4738C40.0723 26.068 38.4505 24.9502 36.6557 24.1877C34.861 23.4252 32.9306 23.0338 30.9806 23.0369Z" fill="#FCD53F"/>
</svg>
