<svg width="62" height="62" viewBox="0 0 62 62" fill="none" xmlns="http://www.w3.org/2000/svg">
<path d="M36.363 22.3006L26.2493 5.67688C25.5905 4.55313 24.4086 3.875 23.1105 3.875H10.3424C7.533 3.875 5.76988 6.8975 7.1455 9.33875C9.7023 13.8623 13.3109 17.7035 17.6661 20.5375C19.1386 21.6806 20.9599 22.3006 22.8393 22.3006H36.363Z" fill="#0074BA"/>
<path d="M51.6499 3.875H38.8818C37.5836 3.875 36.4018 4.55313 35.743 5.67688L25.6293 22.3006H39.1724C41.0518 22.3006 42.8536 21.6806 44.3455 20.5375C48.7049 17.7087 52.3086 13.8725 54.8661 9.33875C56.2224 6.8975 54.4593 3.875 51.6499 3.875Z" fill="#00A6ED"/>
<path d="M30.9225 58.1269C41.6659 58.1269 50.375 49.2009 50.375 38.1901C50.375 27.1792 41.6659 18.2532 30.9225 18.2532C20.1791 18.2532 11.47 27.1792 11.47 38.1901C11.47 49.2009 20.1791 58.1269 30.9225 58.1269Z" fill="#BEBEBE"/>
<path d="M30.9225 55.7245C26.35 55.7245 22.0488 53.9032 18.8325 50.5901C15.5955 47.2767 13.7929 42.8222 13.8144 38.1901C13.8144 33.5014 15.5969 29.1032 18.8325 25.7901C20.4024 24.1676 22.2826 22.8775 24.3613 21.9964C26.4399 21.1153 28.6745 20.6613 30.9322 20.6613C33.1899 20.6613 35.4245 21.1153 37.5031 21.9964C39.5817 22.8775 41.4619 24.1676 43.0319 25.7901C49.6969 32.6295 49.6969 43.7507 43.0319 50.5901C39.7769 53.9032 35.4756 55.7245 30.9225 55.7245ZM30.9031 23.0389C27.125 23.0389 23.3275 24.5114 20.46 27.4757C17.6706 30.3425 16.1189 34.1903 16.1394 38.1901C16.1394 42.2395 17.67 46.037 20.46 48.9045C21.8125 50.3088 23.4346 51.4256 25.229 52.188C27.0235 52.9504 28.9534 53.3427 30.9031 53.3413C34.8556 53.3413 38.5563 51.772 41.3463 48.9045C47.1006 42.9951 47.1006 33.3851 41.3463 27.4757C39.9949 26.07 38.373 24.9522 36.5783 24.1897C34.7836 23.4272 32.8531 23.0357 30.9031 23.0389Z" fill="#E6E6E6"/>
<path d="M34.5611 46.4031H26.8693C26.4987 46.404 26.1356 46.2987 25.8231 46.0995C25.5106 45.9003 25.2618 45.6157 25.1061 45.2794C24.9445 44.9461 24.8824 44.5734 24.927 44.2057C24.9717 43.8381 25.1213 43.4911 25.358 43.2062L31.7518 35.3594C32.2555 34.7394 32.023 34.0806 31.9455 33.8869C31.8554 33.6613 31.7007 33.4674 31.5008 33.3295C31.3008 33.1917 31.0646 33.1159 30.8218 33.1119H30.7249C30.1049 33.1119 29.543 33.4025 29.1749 33.9062C28.5549 34.7781 27.3343 34.9912 26.443 34.3712C26.2328 34.2226 26.054 34.034 25.9168 33.8162C25.7797 33.5983 25.6868 33.3556 25.6436 33.1018C25.6004 32.848 25.6077 32.5882 25.6651 32.3373C25.7225 32.0863 25.8288 31.8492 25.978 31.6394C27.063 30.1087 28.8261 29.1981 30.7055 29.1981H30.9574C32.9336 29.295 34.658 30.4769 35.4718 32.2787C36.3049 34.1387 36.0336 36.2506 34.7549 37.82L30.9768 42.47H34.5418C35.6268 42.47 36.4986 43.3419 36.4986 44.4269C36.4986 45.5119 35.6461 46.4031 34.5611 46.4031Z" fill="#636363"/>
</svg>
